<svg xmlns="http://www.w3.org/2000/svg" width="113" height="38" fill="none"><path fill="#ED1C24" d="M39.658 14.404h-5.3q0-.84-.561-1.122c-.374-.25-.873-.312-1.434-.312-1.185 0-1.809.312-1.933.998-.125.623.56 1.122 2.057 1.559 2.37.686 3.804 1.122 4.24 1.31 1.56.747 2.37 1.932 2.37 3.366 0 .312-.062.562-.125.873-.312 1.933-1.31 3.367-2.993 4.428-1.559.935-3.554 1.434-5.986 1.434q-2.993 0-4.864-1.497c-1.122-.935-1.746-2.12-1.746-3.554 0-.25 0-.436.063-.686h5.362c0 .561.25.998.686 1.31.437.311.936.436 1.559.436 1.559 0 2.37-.436 2.557-1.247.124-.624-.562-1.122-2.058-1.559-2.307-.623-3.741-1.06-4.24-1.31-1.56-.748-2.308-1.933-2.308-3.491 0-.312.063-.624.125-.998.312-1.746 1.247-3.118 2.806-4.053 1.497-.936 3.305-1.372 5.488-1.372 2.244 0 3.928.499 4.988 1.559.873 1.06 1.31 2.307 1.247 3.928m3.055 12.097h-5.487L46.33 9.478h5.674l3.118 17.023h-5.55l-.249-2.245h-5.55zm6.236-5.799-.686-6.11-2.806 6.11zm16.649-11.66c2.494 0 4.427.685 5.737 2.12 1.185 1.31 1.808 2.93 1.808 4.988a9.4 9.4 0 0 1-.187 1.808c-.499 2.806-1.746 5.051-3.741 6.672-1.933 1.56-4.178 2.37-6.797 2.37-2.37 0-4.178-.624-5.55-1.808-1.309-1.247-1.995-2.994-1.995-5.176 0-.686.062-1.372.187-2.182.437-2.682 1.684-4.802 3.617-6.423 1.933-1.559 4.24-2.37 6.921-2.37m-.81 4.177c-1.123 0-2.12.562-2.869 1.56-.623.81-1.06 1.87-1.247 3.117-.125.561-.125 1.122-.125 1.621 0 2.183.873 3.305 2.62 3.305 2.244 0 3.616-1.621 4.24-4.926.124-.499.124-.935.124-1.372 0-2.245-.935-3.367-2.743-3.305"/><path fill="#818285" d="M83.245 17.148c0-1.933-1.123-2.869-2.931-2.869-1.122 0-2.681.437-2.681 1.933 0 1.06 1.122 1.497 1.933 1.87l2.619 1.123c1.247.5 2.307 1.622 2.307 3.056 0 3.242-2.62 4.49-5.3 4.49-3.43 0-5.425-1.497-5.425-5.176h2.182c0 2.307.748 3.305 3.492 3.305 1.496 0 2.868-.686 2.868-2.058 0-.998-.623-1.434-1.371-1.808l-2.432-1.06c-1.684-.749-2.993-1.56-2.993-3.68 0-1.371 1.247-3.928 4.739-3.928 3.242 0 5.175 1.497 5.175 4.74h-2.182zm4.115-2.432h-1.87l.374-1.87h1.87l.873-3.617h2.183l-.81 3.616h2.431l-.312 1.87h-2.556L87.92 22.51c-.124.749-.187 1.06-.187 1.31 0 .56.437.81 1.06.81.5 0 .998-.062 1.372-.124l-.374 1.87c-.436.063-.873.187-1.559.187-1.683 0-2.806-.685-2.806-2.182 0-.25 0-.561.063-.873z"/><path fill="#818285" d="M101.203 22.76c-.125.623-.187.998-.187 1.247 0 .436.312.81.935.81.187 0 .374 0 .562-.062l-.312 1.684c-.437.062-.873.125-1.247.125-1.622 0-1.996-1.06-2.058-1.684h-.062c-.187.499-1.56 1.933-4.178 1.933-3.118 0-4.24-2.182-4.24-3.928 0-3.056 2.12-4.303 4.676-4.49l3.18-.187c1.809-.125 2.183-.873 2.183-1.995 0-1.372-1.06-1.871-2.93-1.871-1.872 0-3.056.81-3.306 2.432h-2.245c.437-3.056 2.931-4.303 5.8-4.303 2.182 0 4.926.561 4.926 3.243 0 .686-.125 1.371-.437 2.619zm-1.559-3.243c-.686.312-2.12.375-3.928.562-1.933.187-3.056 1.184-3.056 2.619 0 1.496 1.06 2.182 2.37 2.182 2.868 0 4.115-2.182 4.614-5.363m6.174-6.672h2.12l-.562 2.744s.936-1.185 1.061-1.372c.561-.623 1.621-1.559 3.117-1.559l.624.063-.437 2.494c-.249 0-.498-.063-.748-.063-2.619 0-4.053 2.869-4.302 4.428l-1.497 6.859h-2.245z"/><path fill="#ED1C24" d="m2.245 8.667 4.676 3.056h6.984v-.748l3.929 2.307-3.929 2.245v-.749h-8.73v.437h5.675l-5.051 9.79 9.665-7.67 5.737 3.804-.936-7.483 6.36-4.989h-6.983L18.644 0l-4.427 8.667"/><path fill="#ED1C24" d="M13.905 13.905H9.291v.437h4.614zM2.307 11.287h-.623v.436h.623zm2.37 0h-.624v.436h.624zm1.247 0H5.3v.436h.624zm-2.058.873h-.873v.436h.873zm1.247 0H4.49v.436h.623zm8.793 0H5.799v.436h8.107zm-13.282.872H0v.437h.624zm1.683 0H1.31v.437h.997zm11.598 0H2.993v.437h10.912zm-5.986.873h-.624v.437h.624zm-1.309 0h-.624v.437h.624zm-1.497 0H4.49v.437h.623zm-.561.873h-.624v.437h.624zm-1.746 0h-.623v.437h.623zm-1.06 0h-.623v.437h.623z"/><path fill="#5D6470" d="m22 31.99.12-.717h3.772l-.12.718H24.31L23.646 36h-.85l.665-4.01zM27.95 36h-.914l2.449-4.727h1.057L31.424 36h-.914l-.635-3.758h-.037zm.337-1.854h2.493l-.116.688h-2.493zm.773 3.123a.45.45 0 0 1-.332-.133.38.38 0 0 1-.114-.319.47.47 0 0 1 .169-.323.53.53 0 0 1 .353-.132q.201 0 .33.132.132.135.116.323a.47.47 0 0 1-.169.319.52.52 0 0 1-.353.133M34.126 36l.785-4.727h1.773q.545 0 .882.203.336.201.468.556.132.353.056.806-.075.454-.326.807-.249.353-.658.557-.408.2-.955.2h-1.175l.117-.703h1.06q.318 0 .54-.111a.9.9 0 0 0 .353-.305 1.1 1.1 0 0 0 .171-.445.9.9 0 0 0-.025-.444.53.53 0 0 0-.252-.297q-.185-.11-.505-.109h-.785L34.983 36zm14.51-3.132h-.849a1 1 0 0 0-.07-.377.8.8 0 0 0-.489-.454q-.17-.06-.378-.06-.397 0-.739.2-.34.201-.58.584a2.5 2.5 0 0 0-.33.926q-.084.53.017.889.105.357.36.54.256.18.623.18.225 0 .43-.056a1.4 1.4 0 0 0 .378-.168 1.3 1.3 0 0 0 .515-.642h.86a2.36 2.36 0 0 1-.805 1.157 2.3 2.3 0 0 1-1.417.477q-.635 0-1.087-.295a1.64 1.64 0 0 1-.647-.852q-.195-.556-.069-1.331.127-.755.49-1.286.364-.531.888-.81.526-.282 1.134-.282.4 0 .73.11.33.112.565.326.236.213.357.522.125.307.113.702M50.986 36l.785-4.727h.856l-.332 2h2.19l.333-2h.858L54.891 36h-.858l.332-2.008h-2.19L51.842 36zm8.558-4.727L58.759 36h-.856l.785-4.727zm-.672-.467.69-1.055h.818l-.885 1.055zM67.084 36h-1.221l.122-.741h1.143q.492 0 .856-.187.367-.19.598-.56.233-.375.323-.929.09-.53-.011-.877a.85.85 0 0 0-.395-.52q-.291-.172-.771-.172H66.5l.122-.741h1.233q.704 0 1.168.29.464.291.65.831.19.539.065 1.284-.12.729-.473 1.249a2.35 2.35 0 0 1-.907.796q-.555.277-1.274.277m.016-4.727L66.315 36h-.856l.785-4.727zm-1.89 2.516.092-.527h2.211l-.092.527zm8.68-2.516L73.105 36h-.856l.785-4.727zM76.113 36l.784-4.727h3.075l-.12.718h-2.218l-.213 1.283h2.06l-.12.718H77.3l-.212 1.29h2.237l-.12.718zm2.866-5.152-.371-.591-.566.59h-.731l.004-.031 1.037-.998h.653l.71.998-.004.032zm-1.523 6.421a.45.45 0 0 1-.332-.133.38.38 0 0 1-.114-.319.47.47 0 0 1 .169-.323.53.53 0 0 1 .353-.132q.201 0 .33.132.131.135.116.323a.47.47 0 0 1-.169.319.52.52 0 0 1-.353.133m9.354-5.996L86.025 36h-.761l-1.692-3.22h-.037L82.997 36h-.856l.784-4.727h.767l1.69 3.222h.043l.534-3.222zm6.378.717.12-.717h3.772l-.12.718h-1.461L94.834 36h-.85l.665-4.01zm11.052-.925h.603q-.08.464-.264.79a1.2 1.2 0 0 1-.517.498q-.332.17-.856.17l.085-.498q.345 0 .531-.113a.68.68 0 0 0 .277-.328q.09-.214.141-.52m-1.373.208h.856l-.512 3.088a1.9 1.9 0 0 1-.388.893 2.1 2.1 0 0 1-.771.603q-.469.215-1.043.215-.58 0-.975-.215a1.3 1.3 0 0 1-.57-.603q-.172-.385-.09-.893l.513-3.088h.856l-.501 3.016a1 1 0 0 0 .044.527.75.75 0 0 0 .309.36q.217.132.543.131.325 0 .586-.131a1.17 1.17 0 0 0 .642-.887zm-.658-.499h-.637l.039-.443a1 1 0 0 0 .355-.062q.111-.056.125-.153.023-.124-.106-.173a1 1 0 0 0-.33-.048l.094-.414q.571 0 .838.167.269.165.222.452a.46.46 0 0 1-.208.328.9.9 0 0 1-.36.134z"/></svg>